<?xml version="1.0" encoding="utf-8"?>
<!-- Generator: Adobe Illustrator 27.2.0, SVG Export Plug-In . SVG Version: 6.00 Build 0)  -->
<svg version="1.1" id="Livello_1" xmlns="http://www.w3.org/2000/svg" xmlns:xlink="http://www.w3.org/1999/xlink" x="0px" y="0px"
	 viewBox="0 0 48 48" style="enable-background:new 0 0 48 48;" xml:space="preserve">
<style type="text/css">
	.st0{fill:#FFFFFF;}
</style>
<circle cx="24" cy="24" r="24"/>
<g>
	<path class="st0" d="M5.98,12.87h9.96c2.4,0,4.23,0.59,5.39,1.62c1.21,1.09,1.77,2.43,1.77,4.17c0,2.27-1.4,3.74-3.49,4.45v0.09
		c2.46,0.72,4.14,2.77,4.14,5.51c0,2.09-0.65,3.52-1.96,4.64c-1.28,1.12-3.24,1.77-5.6,1.77H5.98V12.87z M15.39,21.84
		c1.96,0,3.3-0.93,3.3-2.68c0-1.65-1.21-2.61-3.21-2.61H10.5v5.29H15.39z M10.5,31.39h5.2c2.18,0,3.49-1.21,3.49-3.02
		c0-2.12-1.56-3.21-3.61-3.21H10.5V31.39z"/>
	<path class="st0" d="M24.82,12.87h10.21c4.3,0,7.16,2.49,7.16,6.2c0,2.61-1.21,4.61-4.08,5.39v0.09c2.05,0.59,3.11,1.77,3.39,4.48
		c0.31,3.14,0.19,5.54,0.97,5.88v0.22h-4.33c-0.56-0.25-0.62-2.74-0.81-5.14c-0.19-2.43-1.56-3.8-4.36-3.8h-3.64v8.93h-4.51V12.87z
		 M29.34,22.71h4.79c2.46,0,3.67-1.28,3.67-3.05c0-1.8-1.15-3.14-3.55-3.14h-4.92V22.71z"/>
</g>
</svg>
